# Tiled2Unity generated file. Do not modify by hand.
# Wavefront file for 'Jam_Map_mesh_0004.obj'

# Vertices (Count = 48)
v -800 -220 -0.40625
v -900 -220 -0.40625
v -900 -155 -0.40625
v -800 -155 -0.40625
v -760 -240 -0.4479167
v -860 -240 -0.4479167
v -860 -175 -0.4479167
v -760 -175 -0.4479167
v -720 -260 -0.4895833
v -820 -260 -0.4895833
v -820 -195 -0.4895833
v -720 -195 -0.4895833
v -680 -280 -0.53125
v -780 -280 -0.53125
v -780 -215 -0.53125
v -680 -215 -0.53125
v -640 -300 -0.5729167
v -740 -300 -0.5729167
v -740 -235 -0.5729167
v -640 -235 -0.5729167
v -600 -320 -0.6145833
v -700 -320 -0.6145833
v -700 -255 -0.6145833
v -600 -255 -0.6145833
v -560 -340 -0.65625
v -660 -340 -0.65625
v -660 -275 -0.65625
v -560 -275 -0.65625
v -520 -360 -0.6979167
v -620 -360 -0.6979167
v -620 -295 -0.6979167
v -520 -295 -0.6979167
v -480 -380 -0.7395833
v -580 -380 -0.7395833
v -580 -315 -0.7395833
v -480 -315 -0.7395833
v -440 -400 -0.78125
v -540 -400 -0.78125
v -540 -335 -0.78125
v -440 -335 -0.78125
v -400 -420 -0.8229167
v -500 -420 -0.8229167
v -500 -355 -0.8229167
v -400 -355 -0.8229167
v -360 -440 -0.8645833
v -460 -440 -0.8645833
v -460 -375 -0.8645833
v -360 -375 -0.8645833

# Texture cooridinates (Count = 4)
vt 0 0
vt 1 0
vt 1 1
vt 0 1

# Normal
vn 0 0 -1

# Mesh description
g Jam_Map_mesh_0004

# Faces
f 1/1/1 2/2/1 3/3/1 4/4/1
f 5/1/1 6/2/1 7/3/1 8/4/1
f 9/1/1 10/2/1 11/3/1 12/4/1
f 13/1/1 14/2/1 15/3/1 16/4/1
f 17/1/1 18/2/1 19/3/1 20/4/1
f 21/1/1 22/2/1 23/3/1 24/4/1
f 25/1/1 26/2/1 27/3/1 28/4/1
f 29/1/1 30/2/1 31/3/1 32/4/1
f 33/1/1 34/2/1 35/3/1 36/4/1
f 37/1/1 38/2/1 39/3/1 40/4/1
f 41/1/1 42/2/1 43/3/1 44/4/1
f 45/1/1 46/2/1 47/3/1 48/4/1

